inDegrees=no
num_controls=7
num_derivatives=13
num_iterations=200
num_multipliers=7
num_parameters=0
num_slacks=7
num_states=26
objective=0.506092
objective_accelerations=0.041023
objective_balance=0.003960
objective_effort=0.031432
objective_height=0.317474
objective_ligament=0.112203
solver_duration=2542.166871
status=Solve_Succeeded
success=true
DataType=double
version=3
OpenSimVersion=4.5
endheader
time	/jointset/ground_pelvis/pelvis_tilt/value	/jointset/ground_pelvis/pelvis_tx/value	/jointset/ground_pelvis/pelvis_ty/value	/jointset/hip_l/hip_flexion_l/value	/jointset/hip_l/hip_adduction_l/value	/jointset/hip_l/hip_rotation_l/value	/jointset/back/lumbar_extension/value	/jointset/patellofemoral_l/patellar_flexion_l/value	/jointset/knee_l/knee_flexion_l/value	/jointset/knee_l/knee_adduction_l/value	/jointset/knee_l/knee_rotation_l/value	/jointset/ankle_l/ankle_angle_l/value	/jointset/subtalar_l/subtalar_angle_l/value	/jointset/ground_pelvis/pelvis_tilt/speed	/jointset/ground_pelvis/pelvis_tx/speed	/jointset/ground_pelvis/pelvis_ty/speed	/jointset/hip_l/hip_flexion_l/speed	/jointset/hip_l/hip_adduction_l/speed	/jointset/hip_l/hip_rotation_l/speed	/jointset/back/lumbar_extension/speed	/jointset/patellofemoral_l/patellar_flexion_l/speed	/jointset/knee_l/knee_flexion_l/speed	/jointset/knee_l/knee_adduction_l/speed	/jointset/knee_l/knee_rotation_l/speed	/jointset/ankle_l/ankle_angle_l/speed	/jointset/subtalar_l/subtalar_angle_l/speed	/forceset/tau_hip_flexion_l	/forceset/tau_hip_adduction_l	/forceset/tau_hip_rotation_l	/forceset/tau_knee_flexion_l	/forceset/tau_ankle_angle_l	/forceset/tau_subtalar_angle_l	/forceset/tau_lumbar_extension	lambda_cid13_p0	lambda_cid13_p1	lambda_cid13_p2	lambda_cid13_p3	lambda_cid13_p4	lambda_cid13_p5	lambda_cid14_p0	/jointset/ground_pelvis/pelvis_tilt/accel	/jointset/ground_pelvis/pelvis_tx/accel	/jointset/ground_pelvis/pelvis_ty/accel	/jointset/hip_l/hip_flexion_l/accel	/jointset/hip_l/hip_adduction_l/accel	/jointset/hip_l/hip_rotation_l/accel	/jointset/back/lumbar_extension/accel	/jointset/patellofemoral_l/patellar_flexion_l/accel	/jointset/knee_l/knee_flexion_l/accel	/jointset/knee_l/knee_adduction_l/accel	/jointset/knee_l/knee_rotation_l/accel	/jointset/ankle_l/ankle_angle_l/accel	/jointset/subtalar_l/subtalar_angle_l/accel	gamma_cid13_p0	gamma_cid13_p1	gamma_cid13_p2	gamma_cid13_p3	gamma_cid13_p4	gamma_cid13_p5	gamma_cid14_p0
1.5	-0.03138104626233516	-0.03811027142711965	0.8635998085715482	0.6761768154087546	-0.2956215291341129	-0.1904426988255971	-0.7930714435164591	0.6458787575473671	0.6458787575473448	-0.06726041445863852	-0.171385361330176	0.05740689314117822	0.01962113152455353	0.4935815630814506	0.2578159093933537	0.3798769425841571	-2.006499689757797	0.1913396171656163	-0.6307127770571814	0.8506706349010118	-1.742813555860193	-1.742813555860409	0.06881004110338396	-0.01431014329849853	-0.272403148001564	0.1165116054930138	-0.2210813037628143	0.03280559600014295	-0.007642163080601169	-0.1807219723742306	0.1099482705080481	0.0351926356221925	0.2900288909688768	-7.097178343797874	-15.33086887959846	3.462625075221723	-10.56024285359228	-666.709489639182	-66.67631343803539	-19.69035456679508	0.2195413024908204	0.7356137803406614	-0.5827117992864242	-0.4706036598771189	0.5542474546029326	0.1777816380896778	1.848801244611307	-0.05818725649826892	-0.05818725649826868	-0.02214468560348471	-0.02162457930336241	0.4792650144570655	0.7150954228294606	2.011185243614941e-07	6.985429828128956e-07	-8.804353627584416e-07	2.986325299495739e-08	2.174935504816146e-07	1.624274336422914e-07	2.101352738146843e-07
1.51	-0.02643481847563047	-0.03549559634059595	0.8673688332571783	0.6560900905501497	-0.293681778477198	-0.1967399873337906	-0.7844737716127713	0.6284494396792476	0.6284494396792002	-0.06657597277242107	-0.1715302604955981	0.05470684795447944	0.02082051110542552	0.4955878782546356	0.265088601999548	0.3738647356345133	-2.010596125505855	0.1965628623765385	-0.6286538724815546	0.868736470917758	-1.742835880407243	-1.74283588040735	0.06801445328515954	-0.01466023289146339	-0.2675646699944544	0.1233256236830104	-0.2123362814629537	0.03142856726029874	-0.007636954792487968	-0.1792298964050691	0.111157810134171	0.03411895151142651	0.2822060758240635	-6.515080971403987	-15.00288303117991	3.451905604155961	-10.49201233290386	-662.7334673318098	-66.72482261974874	-20.20920875086453	0.1797809185164382	0.7185271735790437	-0.61991892580869	-0.3417652431842687	0.4992228209780215	0.2338036382351218	1.76638354244985	0.05782393181744348	0.05782393183360225	-0.1177587450735903	-0.04046725803369922	0.4923472972143627	0.6587425630758524	1.998328618927609e-07	7.010062732257002e-07	-8.776465495579273e-07	3.015073651673061e-08	2.226230963994846e-07	1.756141419956415e-07	2.087848680288892e-07
1.52	-0.02147080667843213	-0.03280910829344642	0.8710758471167107	0.6359698809918848	-0.2916912234148431	-0.2030139150420402	-0.7756992595964666	0.6110263143627828	0.6110263143627099	-0.06590138554742067	-0.1716784137786947	0.05205642916852742	0.02208686837739581	0.4971383651791731	0.2721785015185235	0.3674747773646682	-2.013196629690487	0.201500498253099	-0.6260406170684861	0.8860386574242464	-1.741575045529263	-1.741575045529263	0.06683914886126906	-0.01496096683405328	-0.2624778678522871	0.1299071437126497	-0.2035912591630878	0.03005153852046466	-0.007631746504412893	-0.1777378204359023	0.1123673497602995	0.03304526740067384	0.2743832606792513	-5.93539721625993	-14.67601768560923	3.44312818194056	-10.46103658343957	-658.8171987749644	-66.81995032302554	-20.70011614459461	0.1283756527614296	0.6990551628968407	-0.6582620633267124	-0.1714173471920263	0.4971255877305926	0.2886518055780106	1.696071342559801	0.1984446285074151	0.1984446285074827	-0.09808800673670515	-0.01175344922835271	0.5289298414685192	0.6685957907579916	1.979686207996021e-07	6.985664238924651e-07	-8.71405733187959e-07	2.979349271838132e-08	2.274132552708492e-07	1.871864074848457e-07	2.064803787127901e-07
1.53	-0.01649357876864416	-0.03005270135741007	0.8747171345378937	0.615831121330583	-0.2896527687177801	-0.2092590161804584	-0.7667556604836276	0.5936221788803959	0.5936221788803424	-0.06524043189038574	-0.1718292756086867	0.04945806621947316	0.02341782483230152	0.4982295010018252	0.2790653366278875	0.3607253816167732	-2.014304628377644	0.2061353912371428	-0.6228943600040127	0.902541896886444	-1.739037606971406	-1.739037606971291	0.06528662921981457	-0.01520204869130345	-0.2571585242318676	0.1362372105162797	-0.1947556798744219	0.02853455569488441	-0.007626440255678686	-0.1764356148788422	0.1136609110822958	0.03181977799282669	0.2664881204189658	-5.350856150376575	-14.2818900489978	3.421132170943859	-10.35181293211567	-655.0912365977864	-66.83400173566265	-21.15997138632476	0.08784591010668416	0.6778709642773871	-0.6918302759763616	-0.04286600575335937	0.4384176891153703	0.340595445392539	1.606560009553151	0.3135197887602155	0.3135197887773554	-0.1934983432836417	-0.02906315468435733	0.5388911757129633	0.6081623410522882	1.954896399179911e-07	6.909169885790626e-07	-8.614971634504459e-07	2.875122614240187e-08	2.318428154053018e-07	1.97043327430895e-07	2.031621756457428e-07
